<?xml version="1.0" encoding="UTF-8" standalone="no"?>
<!-- Created with Inkscape (http://www.inkscape.org/) -->

<svg
   width="8.5in"
   height="11in"
   viewBox="0 0 215.9 279.4"
   version="1.1"
   id="svg1"
   inkscape:version="1.4 (e7c3feb100, 2024-10-09)"
   sodipodi:docname="character_sheet.svg"
   xmlns:inkscape="http://www.inkscape.org/namespaces/inkscape"
   xmlns:sodipodi="http://sodipodi.sourceforge.net/DTD/sodipodi-0.dtd"
   xmlns="http://www.w3.org/2000/svg"
   xmlns:svg="http://www.w3.org/2000/svg">
  <sodipodi:namedview
     id="namedview1"
     pagecolor="#ffffff"
     bordercolor="#000000"
     borderopacity="0.25"
     inkscape:showpageshadow="2"
     inkscape:pageopacity="0.0"
     inkscape:pagecheckerboard="0"
     inkscape:deskcolor="#d1d1d1"
     inkscape:document-units="in"
     inkscape:zoom="1.6816082"
     inkscape:cx="131.42181"
     inkscape:cy="103.17504"
     inkscape:current-layer="layer1"
     showgrid="true"
     inkscape:lockguides="true"
     showguides="true">
    <sodipodi:guide
       position="0,279.4"
       orientation="0,816"
       id="guide3"
       inkscape:locked="true" />
    <sodipodi:guide
       position="215.9,279.4"
       orientation="1056,0"
       id="guide4"
       inkscape:locked="true" />
    <sodipodi:guide
       position="215.9,0"
       orientation="0,-816"
       id="guide5"
       inkscape:locked="true" />
    <sodipodi:guide
       position="0,0"
       orientation="-1056,0"
       id="guide6"
       inkscape:locked="true" />
    <sodipodi:guide
       position="107.95,279.4"
       orientation="-1,0"
       id="guide7"
       inkscape:locked="true"
       inkscape:label=""
       inkscape:color="rgb(0,134,229)" />
    <sodipodi:guide
       position="0,139.7"
       orientation="0,1"
       id="guide8"
       inkscape:locked="true"
       inkscape:label=""
       inkscape:color="rgb(0,134,229)" />
    <inkscape:grid
       id="grid8"
       units="in"
       originx="0"
       originy="0"
       spacingx="3.175"
       spacingy="3.175"
       empcolor="#0099e5"
       empopacity="0.30196078"
       color="#0099e5"
       opacity="0.14901961"
       empspacing="2"
       enabled="true"
       visible="true" />
  </sodipodi:namedview>
  <defs
     id="defs1" />
  <g
     inkscape:groupmode="layer"
     id="layer2"
     inkscape:label="Templates"
     style="stroke:#808080"
     transform="translate(2.9509587e-6,57.149999)">
    <g
       id="g364"
       style="stroke:#808080"
       transform="translate(19.05,-44.45)">
      <path
         style="fill:none;stroke:#808080;stroke-width:0.529167;stroke-linecap:round;stroke-linejoin:round;stroke-dasharray:none"
         d="M 6.3499999,20.6375 4.7625024,19.05 3.1750053,20.6375 v 3.175 L 4.7625024,25.4 6.3499999,23.8125 v -3.175"
         id="path230-0-6" />
      <path
         style="fill:none;stroke:#808080;stroke-width:0.529167;stroke-linecap:round;stroke-linejoin:round;stroke-dasharray:none"
         d="M 11.112498,20.6375 9.5249999,19.05 7.9375029,20.6375 v 3.175 L 9.5249999,25.4 11.112498,23.8125 v -3.175"
         id="path230-0-6-1" />
      <path
         style="fill:none;stroke:#808080;stroke-width:0.529167;stroke-linecap:round;stroke-linejoin:round;stroke-dasharray:none"
         d="M 15.875,20.6375 14.287502,19.05 12.700005,20.6375 v 3.175 L 14.287502,25.4 15.875,23.8125 v -3.175"
         id="path230-0-6-7" />
      <path
         style="fill:none;stroke:#808080;stroke-width:0.529167;stroke-linecap:round;stroke-linejoin:round;stroke-dasharray:none"
         d="M 20.637498,20.6375 19.05,19.05 17.462503,20.6375 v 3.175 L 19.05,25.4 20.637498,23.8125 v -3.175"
         id="path230-0-6-1-7" />
      <path
         style="fill:none;stroke:#808080;stroke-width:0.529167;stroke-linecap:round;stroke-linejoin:round;stroke-dasharray:none"
         d="M 25.4,20.6375 23.812502,19.05 22.225005,20.6375 v 3.175 L 23.812502,25.4 25.4,23.8125 v -3.175"
         id="path230-0-6-5" />
      <path
         style="fill:none;stroke:#808080;stroke-width:0.529167;stroke-linecap:round;stroke-linejoin:round;stroke-dasharray:none"
         d="M 30.162498,20.6375 28.575,19.05 26.987503,20.6375 v 3.175 L 28.575,25.4 30.162498,23.8125 v -3.175"
         id="path230-0-6-1-2" />
      <path
         style="fill:none;stroke:#808080;stroke-width:0.529167;stroke-linecap:round;stroke-linejoin:round;stroke-dasharray:none"
         d="M 34.925,20.6375 33.337502,19.05 31.750005,20.6375 v 3.175 L 33.337502,25.4 34.925,23.8125 v -3.175"
         id="path230-0-6-7-0" />
      <path
         style="fill:none;stroke:#808080;stroke-width:0.529167;stroke-linecap:round;stroke-linejoin:round;stroke-dasharray:none"
         d="M 39.687498,20.6375 38.1,19.05 36.512503,20.6375 v 3.175 L 38.1,25.4 39.687498,23.8125 v -3.175"
         id="path230-0-6-1-7-2" />
    </g>
    <g
       id="g246"
       transform="translate(-19.05,-3.175)"
       style="stroke-width:0.529167;stroke-dasharray:none">
      <path
         style="fill:none;stroke:#ff00ff;stroke-width:0.529167;stroke-linecap:round;stroke-linejoin:round;stroke-dasharray:none"
         d="m 85.724999,-12.7 h 3.174997 v 3.1750004 h -3.174997 v 3.1749997 h 3.174997 V -9.5249996 H 85.724999 V -12.7 -6.3499999 h 3.175 V -3.175 h -3.175 v -3.1749999"
         id="path229" />
      <path
         style="fill:none;stroke:#ff00ff;stroke-width:0.529167;stroke-linecap:round;stroke-linejoin:round;stroke-dasharray:none"
         d="m 88.899996,-12.7 h 3.174997 v 3.1750004 h -3.174997 v 3.1749997 h 3.174997 V -9.5249996 H 88.899996 V -12.7 -6.3499999 h 3.175 V -3.175 h -3.175 v -3.1749999 l -3.175,-3.1749995 v 3.1749999 l 3.175,-3.1749999"
         id="path229-0" />
    </g>
  </g>
  <g
     inkscape:label="Text"
     inkscape:groupmode="layer"
     id="layer1"
     transform="translate(0.14175914,56.260318)">
    <path
       style="fill:none;stroke:#000000;stroke-width:0.529167;stroke-linecap:round;stroke-linejoin:round;stroke-dasharray:none"
       d="m 10.970736,-10.222819 -1.5874978,-1.5875 -1.5874971,1.5875 v 3.1750007 l 1.5874971,1.5875 1.5874978,-1.5875 v -3.1750007"
       id="path230-0" />
    <path
       style="fill:none;stroke:#000000;stroke-width:0.529167;stroke-linecap:round;stroke-linejoin:round;stroke-dasharray:none"
       d="m 15.733233,-22.922819 -1.587498,-1.5875 -1.587497,1.5875 v 3.175001 l 1.587497,1.587499 1.587498,-1.587499"
       id="path231-2" />
    <path
       style="fill:none;stroke:#000000;stroke-width:0.529167;stroke-linecap:round;stroke-linejoin:round;stroke-dasharray:none"
       d="m 41.133243,-11.810319 1.587497,6.3500008 1.5875,-6.3500008"
       id="path275-9" />
    <path
       style="fill:none;stroke:#000000;stroke-width:0.529167;stroke-linecap:round;stroke-linejoin:round;stroke-dasharray:none"
       d="m 4.6207298,-24.510318 -1.5874971,1.5875 v 3.175 l 1.5875001,1.5875 1.587495,-1.5875 2e-6,1.5875 -2e-6,-4.7625 -1.587498,-1.5875"
       id="path285" />
    <path
       style="fill:none;stroke:#000000;stroke-width:0.529167;stroke-linecap:round;stroke-linejoin:round;stroke-dasharray:none"
       d="m 7.7957376,-27.685319 v 7.9375 l 1.5875,1.5875 1.5874954,-1.5875 v -3.175 l -1.5874984,-1.5875 -1.587497,1.5875"
       id="path286" />
    <path
       style="fill:none;stroke:#000000;stroke-width:0.529167;stroke-linecap:round;stroke-linejoin:round;stroke-dasharray:none"
       d="m 20.495738,-27.685319 v 7.9375 l -1.587503,1.5875 -1.587497,-1.5875 v -3.175 l 1.5875,-1.5875 1.5875,1.5875"
       id="path286-5" />
    <path
       style="fill:none;stroke:#000000;stroke-width:0.529167;stroke-linecap:round;stroke-linejoin:round;stroke-dasharray:none"
       d="m 25.258236,-19.747819 -1.587495,1.5875 -1.5875,-1.5875 v -3.175 l 1.587497,-1.5875 1.587498,1.5875 2e-6,1.5875 h -3.174997"
       id="path287" />
    <path
       style="fill:none;stroke:#000000;stroke-width:0.529167;stroke-linecap:round;stroke-linejoin:round;stroke-dasharray:none"
       d="m 25.25824,-10.222819 -1.587499,-1.5875 -1.587497,1.5875 v 4.7625009"
       id="path293"
       sodipodi:nodetypes="cccc" />
    <path
       style="fill:none;stroke:#000000;stroke-width:0.529167;stroke-linecap:round;stroke-linejoin:round;stroke-dasharray:none"
       d="m 12.558244,-2.2853181 v -7.9375009 l 1.587497,-1.5875 1.587498,1.5875 v 3.1750019 l -1.587498,1.587499 -1.587497,-1.587499"
       id="path296" />
    <path
       style="fill:none;stroke:#000000;stroke-width:0.529167;stroke-linecap:round;stroke-linejoin:round;stroke-dasharray:none"
       d="m 20.495738,-2.2853192 v -6.349999 l -2e-6,-1.5875018 -1.587498,-1.5875 -1.587497,1.5875 v 1.5875018 1.5875 l 1.587497,1.587499 1.587498,-1.587499"
       id="path298" />
    <path
       style="fill:none;stroke:#000000;stroke-width:0.529167;stroke-linecap:round;stroke-linejoin:round;stroke-dasharray:none"
       d="m 31.608238,-16.57282 1.5875,1.5875 1.5875,-1.5875 -5e-6,-6.35 -1.587498,-1.5875 -1.587497,1.5875 v 1.587501 1.5875 l 1.587497,1.587499 1.587498,-1.587499"
       id="path305" />
    <path
       style="fill:none;stroke:#000000;stroke-width:0.529167;stroke-linecap:round;stroke-linejoin:round;stroke-dasharray:none"
       d="m 36.37074,-27.685319 v 9.525 -4.7625 l 1.587497,-1.5875 1.587498,1.5875 2e-6,4.7625"
       id="path306" />
    <path
       style="fill:none;stroke:#000000;stroke-width:0.529167;stroke-linecap:round;stroke-linejoin:round;stroke-dasharray:none"
       d="m 45.895735,-16.572819 1.5875,1.5875 1.5875,-1.5875 -3e-6,-1.5875 3e-6,-4.7625 -1.587498,-1.5875"
       id="path307"
       sodipodi:nodetypes="ccccc" />
    <path
       style="fill:none;stroke:#000000;stroke-width:0.529167;stroke-linecap:round;stroke-linejoin:round;stroke-dasharray:none"
       d="m 3.0332377,-5.4603191 v -3.175 l 3e-6,-1.5875009 1.587497,-1.587499 1.5875,1.587499 v 1.5875009 3.175"
       id="path310" />
    <path
       style="fill:none;stroke:#000000;stroke-width:0.529167;stroke-linecap:round;stroke-linejoin:round;stroke-dasharray:none"
       d="m 36.370741,-11.810319 v 3.1750008 l 3e-6,1.587499 1.587497,1.5875 1.5875,-1.5875 v -4.7624998"
       id="path311" />
    <path
       style="fill:none;stroke:#000000;stroke-width:0.529167;stroke-linecap:round;stroke-linejoin:round;stroke-dasharray:none"
       d="m 55.42074,-3.8728191 1.5875,1.5875 1.5875,-1.5875 -3e-6,-1.5875 v -6.3499999 3.1750009 1.587499 l -1.5875,1.5875 -1.587497,-1.5875 -3e-6,-4.7624999"
       id="path312" />
    <path
       style="fill:none;stroke:#000000;stroke-width:0.529167;stroke-linecap:round;stroke-linejoin:round;stroke-dasharray:none"
       d="m 60.183237,-11.810319 h 3.175 l -3.175,6.3500003 h 3.175"
       id="path313" />
    <path
       style="fill:none;stroke:#000000;stroke-width:0.529167;stroke-linecap:round;stroke-linejoin:round;stroke-dasharray:none"
       d="m 50.658237,-11.810319 3.175,6.3499998 -1.5875,-3.174999 -1.5875,3.174999 3.175,-6.3499998"
       id="path314" />
    <path
       style="fill:none;stroke:#000000;stroke-width:0.529167;stroke-linecap:round;stroke-linejoin:round;stroke-dasharray:none"
       d="m 50.658237,-27.685318 v 9.524999 -3.175 h 1.5875 l 1.5875,3.175 -1.587497,-3.175 1.587497,-3.174999"
       id="path319" />
    <path
       style="fill:none;stroke:#000000;stroke-width:0.529167;stroke-linecap:round;stroke-linejoin:round;stroke-dasharray:none"
       d="m 33.195741,-5.4603181 2e-6,-7.9375019 2e-6,1.5875 -1.587505,1e-6 h 3.174997"
       id="path320"
       sodipodi:nodetypes="ccccc" />
    <path
       style="fill:none;stroke:#000000;stroke-width:0.529167;stroke-linecap:round;stroke-linejoin:round;stroke-dasharray:none"
       d="m 28.433243,-18.160319 v -3.175 h -1.587505 3.175 -1.587495 v -3.175001 l 3e-6,-1.5875 1.5875,1.5875"
       id="path321"
       sodipodi:nodetypes="cccccccc" />
    <g
       id="g322"
       transform="translate(-4.9042589,-11.810319)"
       style="stroke-width:0.529167;stroke-dasharray:none">
      <path
         style="fill:none;stroke:#000000;stroke-width:0.529167;stroke-linecap:round;stroke-linejoin:round;stroke-dasharray:none"
         d="M 34.924996,1.5875 33.337496,0 31.749999,1.5875 v 0 l 3.174997,3.174999 v 0 l -1.5875,1.5875 -1.587497,-1.5875"
         id="path315"
         sodipodi:nodetypes="cccccccc" />
      <path
         style="fill:none;stroke:none;stroke-width:0.529167;stroke-linecap:round;stroke-linejoin:round;stroke-dasharray:none"
         d="m 31.749999,0 h 3.175 v 6.3499999 h -3.175 V 3.175 h 3.175 V 0 h -3.175 v 3.175"
         id="path322" />
    </g>
    <path
       style="fill:none;stroke:#000000;stroke-width:0.529167;stroke-linecap:round;stroke-linejoin:round;stroke-dasharray:none"
       d="m 3.0332408,-43.560318 v -6.35 l 3e-6,-1.5875 1.587498,-1.587499 1.587499,1.587499 v 1.5875 6.35 l 3e-6,-4.7625 h -3.175"
       id="path327"
       sodipodi:nodetypes="ccccccccc" />
    <path
       style="fill:none;stroke:#000000;stroke-width:0.529167;stroke-linecap:round;stroke-linejoin:round;stroke-dasharray:none"
       d="m 9.3832376,-43.560318 1.5875004,-1.5875 -3e-6,-1.5875 -1.5875014,-1.5875 1.5875014,-1.5875 v -1.587499 l -1.5874994,-1.5875 h -1.587498 v 4.762499 h 1.587496 -1.587496 v 4.7625 h 1.5875"
       id="path328"
       sodipodi:nodetypes="ccccccccccccc" />
    <path
       style="fill:none;stroke:#000000;stroke-width:0.529167;stroke-linecap:round;stroke-linejoin:round;stroke-dasharray:none"
       d="m 15.733238,-51.497818 -1.587499,-1.587499 -1.587498,1.587499 v 6.35 l 1.5875,1.5875 1.587497,-1.5875"
       id="path329" />
    <path
       style="fill:none;stroke:#000000;stroke-width:0.529167;stroke-linecap:round;stroke-linejoin:round;stroke-dasharray:none"
       d="m 17.320741,-53.085317 v 9.524999 h 1.587496 l 1.587504,-1.5875 -3e-6,-6.35 -1.587501,-1.587499 h -1.587496"
       id="path330" />
    <path
       style="fill:none;stroke:#000000;stroke-width:0.529167;stroke-linecap:round;stroke-linejoin:round;stroke-dasharray:none"
       d="m 25.258243,-53.085317 h -3.174996 v 4.762499 h 1.587495 -1.587495 v 4.7625 h 3.174996"
       id="path331" />
    <path
       style="fill:none;stroke:#000000;stroke-width:0.529167;stroke-linecap:round;stroke-linejoin:round;stroke-dasharray:none"
       d="M 30.020735,-53.085317 H 26.84574 v 4.762499 h 1.587495 -1.587495 v 4.7625"
       id="path332" />
    <path
       style="fill:none;stroke:#000000;stroke-width:0.529167;stroke-linecap:round;stroke-linejoin:round;stroke-dasharray:none"
       d="m 34.783238,-51.497818 -1.5875,-1.587499 -1.587498,1.587499 v 6.35 l 1.5875,1.5875 1.587498,-1.5875 v -3.175 h -1.5875"
       id="path333" />
    <path
       style="fill:none;stroke:#000000;stroke-width:0.529167;stroke-linecap:round;stroke-linejoin:round;stroke-dasharray:none"
       d="m 36.370743,-53.085317 v 9.524999 -4.7625 h 3.174995 v -4.762499 l 5e-6,9.524999"
       id="path334" />
    <path
       style="fill:none;stroke:#000000;stroke-width:0.529167;stroke-linecap:round;stroke-linejoin:round;stroke-dasharray:none"
       d="m 41.133237,-53.085317 h 3.175 -1.5875 l 3e-6,9.524999 h -1.587503 3.175"
       id="path335" />
    <path
       style="fill:none;stroke:#000000;stroke-width:0.529167;stroke-linecap:round;stroke-linejoin:round;stroke-dasharray:none"
       d="m 45.89574,-53.085317 h 3.174997 l 3e-6,6.349999 v 1.5875 l -1.587503,1.5875 -1.587497,-1.5875 -3e-6,-1.5875 v -1.587499"
       id="path336" />
    <path
       style="fill:none;stroke:#000000;stroke-width:0.529167;stroke-linecap:round;stroke-linejoin:round;stroke-dasharray:none"
       d="m 50.658237,-53.085317 v 9.524999 l 3e-6,-4.7625 h 1.587497 l 1.5875,-4.762499 -1.5875,4.762499 1.5875,4.7625"
       id="path337" />
    <path
       style="fill:none;stroke:#000000;stroke-width:0.529167;stroke-linecap:round;stroke-linejoin:round;stroke-dasharray:none"
       d="m 55.42074,-53.085317 v 9.524999 h 3.174997"
       id="path338" />
    <path
       style="fill:none;stroke:#000000;stroke-width:0.529167;stroke-linecap:round;stroke-linejoin:round;stroke-dasharray:none"
       d="m 60.183237,-43.560318 v -9.524999 l 1.587503,6.349999 1.587497,-6.349999 v 9.524999"
       id="path339" />
    <path
       style="fill:none;stroke:#000000;stroke-width:0.529167;stroke-linecap:round;stroke-linejoin:round;stroke-dasharray:none"
       d="m 3.0332377,-30.860319 v -9.524999 l 3.174997,9.524999 2.9e-6,-9.524999"
       id="path340" />
    <path
       style="fill:none;stroke:#000000;stroke-width:0.529167;stroke-linecap:round;stroke-linejoin:round;stroke-dasharray:none"
       d="m 7.7957437,-32.447818 1.5875,1.5875 1.5874973,-1.5875 v -6.35 l -1.5874993,-1.587499 -1.587498,1.587499 v 6.35"
       id="path341" />
    <path
       style="fill:none;stroke:#000000;stroke-width:0.529167;stroke-linecap:round;stroke-linejoin:round;stroke-dasharray:none"
       d="m 12.558238,-30.860319 v -9.524999 h 1.587504 l 1.587499,1.587499 -3e-6,1.5875 -1.587497,1.5875 -1.587506,10e-7"
       id="path342"
       sodipodi:nodetypes="ccccccc" />
    <g
       id="g344"
       style="stroke-width:0.529167;stroke-dasharray:none"
       transform="translate(-0.14176234,0.88968163)">
      <path
         style="fill:none;stroke:#000000;stroke-width:0.529167;stroke-linecap:round;stroke-linejoin:round;stroke-dasharray:none"
         d="m 19.049999,-31.75 1.587504,-1.5875 -3e-6,-6.35 -1.587501,-1.587499 -1.587496,1.587499 v 6.35 l 1.5875,1.5875"
         id="path343" />
      <path
         style="fill:none;stroke:#000000;stroke-width:0.529167;stroke-linecap:round;stroke-linejoin:round;stroke-dasharray:none"
         d="m 20.6375,-31.75 -0.793749,-0.79375"
         id="path344" />
    </g>
    <path
       style="fill:none;stroke:#000000;stroke-width:0.529167;stroke-linecap:round;stroke-linejoin:round;stroke-dasharray:none"
       d="m 22.083237,-30.860319 1e-6,-9.524999 h 1.587504 l 1.587499,1.587499 -9e-6,1.587501 -1.587497,1.587499 -1.587507,10e-7 1.587507,-10e-7 1.587506,4.7625"
       id="path345"
       sodipodi:nodetypes="ccccccccc" />
    <path
       style="fill:none;stroke:#000000;stroke-width:0.529167;stroke-linecap:round;stroke-linejoin:round;stroke-dasharray:none"
       d="m 26.845738,-34.035319 5e-6,1.5875 1.587495,1.5875 1.587505,-1.5875 v -1.5875 l -3.175005,-3.175 5e-6,-1.5875 1.587497,-1.587499 1.587498,1.587499 10e-7,1.587501"
       id="path346" />
    <path
       style="fill:none;stroke:#000000;stroke-width:0.529167;stroke-linecap:round;stroke-linejoin:round;stroke-dasharray:none"
       d="m 33.19574,-30.860319 -2e-6,-9.524999 h -1.5875 3.175"
       id="path347" />
    <path
       style="fill:none;stroke:#000000;stroke-width:0.529167;stroke-linecap:round;stroke-linejoin:round;stroke-dasharray:none"
       d="m 36.37074,-40.385318 v 7.937499 l 1.587498,1.5875 1.5875,-1.5875 v -7.937499"
       id="path348" />
    <path
       style="fill:none;stroke:#000000;stroke-width:0.529167;stroke-linecap:round;stroke-linejoin:round;stroke-dasharray:none"
       d="m 41.133237,-40.385318 1.587503,9.524999 1.587497,-9.524999"
       id="path349" />
    <path
       style="fill:none;stroke:#000000;stroke-width:0.529167;stroke-linecap:round;stroke-linejoin:round;stroke-dasharray:none"
       d="m 45.895743,-40.385318 v 9.524999 l 1.587497,-4.7625 1.587497,4.7625 v -9.524999"
       id="path350"
       sodipodi:nodetypes="ccccc" />
    <path
       style="fill:none;stroke:#000000;stroke-width:0.529167;stroke-linecap:round;stroke-linejoin:round;stroke-dasharray:none"
       d="m 50.658237,-40.385318 3.175,9.524999 -1.587497,-4.7625 1.587497,-4.762499 -3.174994,9.524999"
       id="path351" />
    <path
       style="fill:none;stroke:#000000;stroke-width:0.529167;stroke-linecap:round;stroke-linejoin:round;stroke-dasharray:none"
       d="m 55.42074,-40.385318 1.587497,6.35 3e-6,3.174999 -3e-6,-3.174999 1.5875,-6.35"
       id="path352"
       sodipodi:nodetypes="ccccc" />
    <path
       style="fill:none;stroke:#000000;stroke-width:0.529167;stroke-linecap:round;stroke-linejoin:round;stroke-dasharray:none"
       d="m 60.18324,-40.385318 h 3.174997 l -3.175,9.524999 h 3.175"
       id="path353" />
    <path
       style="fill:none;stroke:#000000;stroke-width:0.529167;stroke-linecap:round;stroke-linejoin:round;stroke-dasharray:none"
       d="m 45.895737,-11.810319 v 4.7625009 l 1.587497,1.5875001 v -3.1749991 3.1749991 l 1.587498,-1.5875001 5e-6,-4.7625009"
       id="path363" />
    <path
       style="fill:none;stroke:#000000;stroke-width:0.529167;stroke-linecap:round;stroke-linejoin:round;stroke-dasharray:none"
       d="m 60.183237,-18.160318 v -3.175001 -1.5875 l 1.587497,-1.5875 -2e-6,4.762501 2e-6,-4.762501 1.587498,1.5875 5e-6,4.762501"
       id="path364" />
    <path
       style="fill:none;stroke:#000000;stroke-width:0.529167;stroke-linecap:round;stroke-linejoin:round;stroke-dasharray:none"
       d="m 41.133243,-24.51032 1.587497,1e-6 3e-6,6.349999 1.587495,-1.5875"
       id="path371" />
    <path
       style="fill:none;stroke:#000000;stroke-width:0.529167;stroke-linecap:round;stroke-linejoin:round;stroke-dasharray:none"
       d="m 55.420742,-27.685319 1.587498,1.5875 -3e-6,7.9375 1.5875,-1.5875"
       id="path372"
       sodipodi:nodetypes="cccc" />
  </g>
</svg>
